<!-- вызывать с помощью: <use href="sprite.svg#id" x="0" y="0"></use> -->
<svg xmlns="http://www.w3.org/2000/svg">
    <symbol id="search-icon" viewBox="0 0 14 15">
        <!-- width="14" height="15" -->
        <path d="M11.375 6.1875C11.3568 7.46354 10.9922 8.58464 10.2812 9.55078L13.7539 12.9961C13.918 13.1784 14 13.388 14 13.625C14 13.862 13.918 14.0716 13.7539 14.2539C13.5716 14.418 13.362 14.5 13.125 14.5C12.888 14.5 12.6784 14.418 12.4961 14.2539L9.05078 10.7812C8.08464 11.4922 6.96354 11.8568 5.6875 11.875C4.08333 11.8385 2.74349 11.2826 1.66797 10.207C0.592448 9.13151 0.0364583 7.79167 0 6.1875C0.0364583 4.58333 0.592448 3.24349 1.66797 2.16797C2.74349 1.09245 4.08333 0.536458 5.6875 0.5C7.29167 0.536458 8.63151 1.09245 9.70703 2.16797C10.7826 3.24349 11.3385 4.58333 11.375 6.1875ZM5.6875 10.125C6.39844 10.125 7.05469 9.95182 7.65625 9.60547C8.25781 9.25911 8.74089 8.77604 9.10547 8.15625C9.45182 7.53646 9.625 6.88021 9.625 6.1875C9.625 5.49479 9.45182 4.83854 9.10547 4.21875C8.74089 3.59896 8.25781 3.11589 7.65625 2.76953C7.05469 2.42318 6.39844 2.25 5.6875 2.25C4.97656 2.25 4.32031 2.42318 3.71875 2.76953C3.11719 3.11589 2.63411 3.59896 2.26953 4.21875C1.92318 4.83854 1.75 5.49479 1.75 6.1875C1.75 6.88021 1.92318 7.53646 2.26953 8.15625C2.63411 8.77604 3.11719 9.25911 3.71875 9.60547C4.32031 9.95182 4.97656 10.125 5.6875 10.125Z" fill="#4588E6"/>
    </symbol>
    <symbol id="search-icon-dark" viewBox="0 0 16 16">
        <!-- width="16" height="16" -->
        <path d="M13 6.5C12.9792 7.95833 12.5625 9.23958 11.75 10.3438L15.7188 14.2813C15.9063 14.4896 16 14.7292 16 15C16 15.2708 15.9063 15.5104 15.7188 15.7188C15.5104 15.9063 15.2708 16 15 16C14.7292 16 14.4896 15.9063 14.2813 15.7188L10.3438 11.75C9.23958 12.5625 7.95833 12.9792 6.5 13C4.66667 12.9583 3.13542 12.3229 1.90625 11.0938C0.677083 9.86458 0.0416667 8.33333 0 6.5C0.0416667 4.66667 0.677083 3.13542 1.90625 1.90625C3.13542 0.677083 4.66667 0.0416667 6.5 0C8.33333 0.0416667 9.86458 0.677083 11.0938 1.90625C12.3229 3.13542 12.9583 4.66667 13 6.5ZM6.5 11C7.3125 11 8.0625 10.8021 8.75 10.4062C9.4375 10.0104 9.98958 9.45833 10.4062 8.75C10.8021 8.04167 11 7.29167 11 6.5C11 5.70833 10.8021 4.95833 10.4062 4.25C9.98958 3.54167 9.4375 2.98958 8.75 2.59375C8.0625 2.19792 7.3125 2 6.5 2C5.6875 2 4.9375 2.19792 4.25 2.59375C3.5625 2.98958 3.01042 3.54167 2.59375 4.25C2.19792 4.95833 2 5.70833 2 6.5C2 7.29167 2.19792 8.04167 2.59375 8.75C3.01042 9.45833 3.5625 10.0104 4.25 10.4062C4.9375 10.8021 5.6875 11 6.5 11Z" fill="#2B2E33"/>
    </symbol>
    <symbol id="phone-icon" viewBox="0 0 17 17">
        <!-- width="17" height="17" -->
        <path d="M0.0512609 4.66352C0.0512609 9.75526 6.80248 16.4998 11.8876 16.4998C13.0005 16.4998 14.0402 16.0799 14.8067 15.3135L15.4731 14.5471C16.2462 13.774 16.2462 12.4677 15.4398 11.6613C15.4198 11.6413 13.8136 10.4084 13.8136 10.4084C13.0139 9.64862 11.7543 9.64862 10.9612 10.4084L9.98816 11.1881C7.85549 10.2818 6.34263 8.76223 5.3696 6.55626L6.14269 5.58323C6.90912 4.79014 6.90912 3.52387 6.14269 2.73079C6.14269 2.73079 4.90974 1.12462 4.88975 1.10463C4.08333 0.298213 2.77707 0.298213 1.97066 1.10463L1.27088 1.71111C0.471129 2.50419 0.0512609 3.54387 0.0512609 4.65685V4.66352Z" fill="#4588E6"/>
    </symbol>
    <symbol id="mail-icon" viewBox="0 0 17 15">
        <!-- width="17" height="15" -->
        <path fill-rule="evenodd" clip-rule="evenodd" d="M15.5552 1.77384L9.46591 7.86384C9.09019 8.23805 8.58152 8.44815 8.05124 8.44815C7.52096 8.44815 7.01229 8.23805 6.63657 7.86384L0.547241 1.77384C0.842227 1.28472 1.25828 0.879862 1.75526 0.598324C2.25224 0.316786 2.81339 0.168064 3.38457 0.166504H12.7179C13.2891 0.168064 13.8502 0.316786 14.3472 0.598324C14.8442 0.879862 15.2603 1.28472 15.5552 1.77384ZM10.4086 8.80682L16.0206 3.19482C16.0241 3.23395 16.0292 3.2717 16.0343 3.30906C16.0428 3.37227 16.0513 3.43437 16.0513 3.50016V11.5002C16.0502 12.3839 15.6987 13.2311 15.0738 13.856C14.4489 14.4809 13.6017 14.8324 12.7179 14.8335H3.3846C2.50087 14.8324 1.65364 14.4809 1.02875 13.856C0.403858 13.2311 0.0523281 12.3839 0.0512695 11.5002V3.50016C0.0512695 3.43437 0.0596972 3.37227 0.0682759 3.30906C0.0733461 3.2717 0.0784691 3.23395 0.0819362 3.19482L5.69394 8.80682C6.31969 9.43099 7.16744 9.78152 8.05127 9.78152C8.9351 9.78152 9.78285 9.43099 10.4086 8.80682Z" fill="#4588E6"/>

  </symbol>
</svg>