<svg width="24" height="24" fill="none" xmlns="http://www.w3.org/2000/svg"><rect width="24.001" height="24" rx="4" fill="#4588E6"/><path d="M12.678 16.08c.355 0 .5-.237.496-.534-.018-1.118.417-1.72 1.201-.936.868.868 1.048 1.47 2.102 1.47h1.867c.471 0 .656-.152.656-.39 0-.503-.828-1.392-1.53-2.044-.984-.913-1.03-.934-.183-2.033 1.05-1.365 2.425-3.113 1.209-3.113h-2.322c-.45 0-.483.254-.644.632-.58 1.369-1.683 3.142-2.102 2.871-.438-.283-.237-1.403-.204-3.069.009-.44.006-.741-.666-.898a4.707 4.707 0 00-1.055-.12c-1.326 0-2.24.557-1.72.654.916.17.828 2.153.614 3.01-.372 1.49-1.77-1.181-2.353-2.512-.141-.32-.184-.568-.686-.568H5.46c-.287 0-.46.094-.46.301 0 .351 1.727 3.92 3.376 5.7 1.607 1.734 3.196 1.579 4.302 1.579z" fill="#fff"/></svg>