<svg width="18" height="19" fill="none" xmlns="http://www.w3.org/2000/svg"><path fill-rule="evenodd" clip-rule="evenodd" d="M1.308 13.878L.043 18.5l4.728-1.24a8.924 8.924 0 004.266 1.085c4.917 0 8.918-4 8.92-8.918a8.868 8.868 0 00-2.61-6.311A8.862 8.862 0 009.037.5C4.121.5.12 4.501.117 9.418a8.9 8.9 0 001.191 4.46zm11.918-2.532c.155.075.26.126.305.2.056.094.056.54-.13 1.061-.186.52-1.076.996-1.505 1.06a3.07 3.07 0 01-1.404-.088c-.323-.103-.738-.24-1.27-.47-2.086-.9-3.496-2.92-3.766-3.308l-.041-.057-.003-.004c-.12-.16-.907-1.213-.907-2.302 0-1.025.503-1.562.735-1.81l.045-.049A.816.816 0 015.88 5.3l.428.008h.05c.129 0 .291-.002.452.382l.226.55c.196.48.422 1.028.46 1.104.057.112.094.243.02.391l-.033.065a1.211 1.211 0 01-.193.306l-.114.138a3.6 3.6 0 01-.22.253c-.111.111-.227.232-.098.455.13.223.578.953 1.24 1.544.711.635 1.33.903 1.644 1.04.062.026.112.048.149.066.222.112.353.093.482-.055.13-.149.558-.651.706-.874.15-.223.298-.186.502-.112.205.075 1.3.614 1.523.726l.123.06z" fill="#15CC15"/></svg>